<svg width="248.000000" height="248.000000" viewBox="0 0 248 248" fill="none" xmlns="http://www.w3.org/2000/svg" xmlns:xlink="http://www.w3.org/1999/xlink">
	<desc>
			Created with Pixso.
	</desc>
	<defs>
		<filter id="filter_12_108_dd" x="0.000000" y="0.000000" width="248.000000" height="248.000000" filterUnits="userSpaceOnUse" color-interpolation-filters="sRGB">
			<feFlood flood-opacity="0" result="BackgroundImageFix"/>
			<feGaussianBlur in="BackgroundImage" stdDeviation="60"/>
			<feComposite in2="SourceAlpha" operator="in" result="effect_backgroundBlur_1"/>
			<feBlend mode="normal" in="SourceGraphic" in2="effect_backgroundBlur_1" result="shape"/>
		</filter>
	</defs>
	<g filter="url(#filter_12_108_dd)">
		<circle id="Ellipse 49" cx="124.000000" cy="124.000000" r="124.000000" fill="#FFFFFF" fill-opacity="1.000000"/>
	</g>
	<path id="projects" d="M99.36 132.33Q100.8 132.96 102.52 132.96Q104.36 132.96 105.87 132.25Q106.22 132.09 106.56 131.88Q106.97 131.63 107.34 131.33Q108.57 130.34 109.35 128.8Q110.38 126.8 110.38 124.01Q110.38 121.21 109.35 119.2Q108.56 117.63 107.3 116.63Q106.95 116.35 106.56 116.11Q106.22 115.9 105.87 115.74Q104.36 115.03 102.52 115.03Q100.8 115.03 99.36 115.66Q98.91 115.85 98.49 116.11Q98.09 116.35 97.72 116.64Q96.47 117.64 95.67 119.2Q94.64 121.21 94.64 124.01Q94.64 126.78 95.67 128.8Q96.46 130.33 97.68 131.32Q98.06 131.63 98.49 131.88Q98.91 132.14 99.36 132.33ZM142.44 132.33Q143.88 132.96 145.6 132.96Q147.04 132.96 148.26 132.54Q149.43 132.12 150.35 131.39Q150.39 131.36 150.42 131.33Q150.92 130.92 151.33 130.43Q151.69 129.99 151.98 129.48Q152.01 129.43 152.04 129.38Q152.6 128.34 152.79 127.1L150.14 127.1Q149.98 127.94 149.56 128.59Q149.36 128.9 149.1 129.17Q148.85 129.44 148.54 129.67Q148.35 129.81 148.15 129.92Q147.7 130.18 147.19 130.34Q146.45 130.56 145.62 130.56Q144.62 130.56 143.75 130.22Q143.33 130.05 142.94 129.81Q142.82 129.73 142.7 129.65Q141.67 128.91 141.05 127.6Q140.36 126.14 140.36 124.01Q140.36 121.89 141.04 120.42Q141.68 119.05 142.75 118.31Q142.84 118.25 142.92 118.19Q143.34 117.94 143.78 117.76Q144.64 117.43 145.63 117.43Q146.46 117.43 147.2 117.67Q147.8 117.84 148.3 118.17Q148.43 118.25 148.55 118.35Q148.75 118.49 148.93 118.66Q149.29 119.01 149.57 119.45Q149.99 120.09 150.14 120.95L152.79 120.95Q152.58 119.55 151.95 118.45Q151.51 117.67 150.9 117.06Q150.65 116.81 150.37 116.59Q150.23 116.48 150.08 116.37Q149.23 115.77 148.19 115.43Q146.98 115.03 145.6 115.03Q143.88 115.03 142.44 115.66Q141.99 115.85 141.57 116.11Q141.2 116.33 140.86 116.6Q139.58 117.61 138.77 119.2Q137.75 121.21 137.75 124.01Q137.75 126.78 138.77 128.8Q139.53 130.3 140.72 131.29Q141.12 131.61 141.57 131.88Q141.99 132.14 142.44 132.33ZM172 132.4Q173.44 133.01 175.4 133.01Q177.45 133.01 178.89 132.35Q180.26 131.72 181.02 130.65Q181.06 130.59 181.09 130.53Q181.35 130.14 181.52 129.72Q181.85 128.88 181.85 127.91Q181.85 126.73 181.39 125.89Q181.13 125.41 180.77 125.02Q180.49 124.73 180.17 124.49Q179.81 124.22 179.43 124Q179 123.75 178.54 123.56Q177.66 123.21 176.83 123L175.13 122.54Q174.45 122.35 173.71 122.06Q172.98 121.76 172.47 121.24Q172.33 121.1 172.23 120.93Q171.96 120.5 171.96 119.91Q171.96 119.42 172.14 119Q172.23 118.77 172.39 118.56Q172.82 117.97 173.6 117.64Q174.4 117.3 175.46 117.3Q176.97 117.3 177.94 117.97Q178.4 118.29 178.68 118.72Q178.99 119.21 179.07 119.85L181.62 119.85Q181.6 119 181.29 118.27Q181.1 117.8 180.79 117.37Q180.7 117.26 180.61 117.14Q179.85 116.22 178.64 115.66Q177.3 115.03 175.52 115.03Q173.77 115.03 172.36 115.66Q171.2 116.18 170.43 117.05Q170.28 117.22 170.15 117.41Q169.93 117.72 169.77 118.05Q169.34 118.95 169.34 120.05Q169.34 121.21 169.84 122.09Q170.12 122.58 170.56 122.99Q171.78 124.1 173.89 124.66L175.94 125.23Q176.87 125.47 177.62 125.8Q178.37 126.12 178.81 126.61Q178.9 126.72 178.98 126.83Q179.25 127.27 179.25 127.87Q179.25 128.39 179.07 128.83Q178.95 129.12 178.75 129.37Q178.26 130.01 177.38 130.36Q176.5 130.71 175.39 130.71Q174.37 130.71 173.51 130.41Q172.77 130.14 172.26 129.64Q172.19 129.56 172.12 129.48Q172.06 129.41 172 129.33Q171.58 128.74 171.51 127.9L168.86 127.9Q168.94 129.3 169.59 130.36Q169.67 130.5 169.76 130.63Q169.89 130.81 170.03 130.97Q170.79 131.87 172 132.4ZM66.4 115.27L66.4 132.73L69.04 132.73L69.04 126.59L72.61 126.59Q74.65 126.59 75.99 125.85Q76.94 125.32 77.55 124.53Q77.8 124.2 78 123.82Q78.05 123.73 78.09 123.64Q78.67 122.42 78.67 120.93Q78.67 119.4 78.07 118.17Q78.04 118.1 78 118.04Q77.77 117.59 77.45 117.2Q76.86 116.49 76 116.02Q74.66 115.27 72.64 115.27L66.4 115.27ZM69.04 124.36L72.37 124.36Q73.67 124.36 74.46 123.91Q75.03 123.6 75.38 123.13Q75.53 122.93 75.64 122.69Q76.01 121.91 76.01 120.93Q76.01 119.93 75.64 119.17Q75.52 118.92 75.36 118.7Q75.01 118.25 74.46 117.96Q73.66 117.53 72.35 117.53L69.04 117.53L69.04 124.36ZM80.72 115.27L80.72 132.73L83.36 132.73L83.36 126.12L86.93 126.12Q87.02 126.12 87.11 126.12L90.66 132.73L93.66 132.73L89.8 125.67Q90.07 125.57 90.31 125.45Q91.27 124.97 91.89 124.21Q92.13 123.91 92.32 123.56Q92.99 122.34 92.99 120.75Q92.99 119.13 92.32 117.9Q92.11 117.51 91.83 117.17Q91.23 116.44 90.32 115.97Q88.98 115.27 86.96 115.27L80.72 115.27ZM83.36 123.87L86.69 123.87Q87.99 123.87 88.78 123.49Q89.44 123.19 89.8 122.68Q89.89 122.56 89.96 122.43Q90.33 121.73 90.33 120.75Q90.33 119.75 89.96 119.04Q89.85 118.84 89.71 118.66Q89.36 118.2 88.77 117.93Q87.98 117.53 86.67 117.53L83.36 117.53L83.36 123.87ZM114.14 132.43Q115.33 132.96 116.82 132.96Q118.42 132.96 119.59 132.34Q120.15 132.04 120.59 131.61Q121.07 131.14 121.4 130.52Q122.04 129.33 122.04 127.65L122.04 115.27L119.43 115.27L119.43 127.65Q119.43 128.65 119.12 129.34Q118.9 129.84 118.52 130.16Q118.39 130.28 118.23 130.37Q117.65 130.72 116.82 130.72Q116.04 130.72 115.44 130.44Q115.1 130.27 114.83 130Q114.66 129.83 114.52 129.61Q114.49 129.56 114.46 129.51Q114.19 129 114.19 128.35L114.19 128.02L111.58 128.02L111.58 128.35Q111.58 129.79 112.23 130.8Q112.25 130.83 112.27 130.86Q112.51 131.22 112.81 131.52Q113.37 132.08 114.14 132.43ZM124.85 115.27L124.85 132.73L135.89 132.73L135.89 130.46L127.49 130.46L127.49 125.04L135.23 125.04L135.23 122.79L127.49 122.79L127.49 117.53L135.81 117.53L135.81 115.27L124.85 115.27ZM154.08 115.27L154.08 117.53L159.54 117.53L159.54 132.73L162.17 132.73L162.17 117.53L167.6 117.53L167.6 115.27L154.08 115.27ZM104.58 130.15Q103.64 130.56 102.52 130.56Q101.47 130.56 100.57 130.19Q100.19 130.03 99.82 129.81Q99.75 129.76 99.68 129.71Q98.6 128.97 97.95 127.59Q97.26 126.13 97.26 124.01Q97.26 121.87 97.95 120.41Q98.61 119.01 99.71 118.26Q99.77 118.22 99.82 118.18Q100.19 117.96 100.57 117.8Q101.47 117.43 102.52 117.43Q103.64 117.43 104.58 117.84Q104.91 117.99 105.21 118.18Q105.29 118.23 105.37 118.28Q106.44 119.03 107.08 120.41Q107.77 121.87 107.77 124.01Q107.77 126.13 107.08 127.59Q106.45 128.94 105.4 129.69Q105.31 129.75 105.21 129.81Q104.91 130 104.58 130.15Z" fill="#000000" fill-opacity="1.000000" fill-rule="evenodd"/>
</svg>
