<svg width="24.000000" height="24.000000" viewBox="0 0 24 24" fill="none" xmlns="http://www.w3.org/2000/svg" xmlns:xlink="http://www.w3.org/1999/xlink">
	<desc>
			Created with Pixso.
	</desc>
	<defs/>
	<path id="Vector" d="M11.58 0L12.41 0C14.58 0 16.28 0 17.64 0.14C19.03 0.29 20.17 0.61 21.14 1.32C21.73 1.74 22.25 2.26 22.67 2.85C23.38 3.82 23.7 4.96 23.85 6.35C24 7.71 24 9.41 24 11.58L24 12.41C24 14.58 24 16.28 23.85 17.64C23.7 19.03 23.38 20.17 22.67 21.14C22.25 21.73 21.73 22.25 21.14 22.67C20.17 23.38 19.03 23.7 17.64 23.85C16.28 24 14.58 24 12.41 24L11.58 24C9.41 24 7.71 24 6.35 23.85C4.96 23.7 3.82 23.38 2.85 22.67C2.26 22.25 1.74 21.73 1.32 21.14C0.61 20.17 0.29 19.03 0.14 17.64C0 16.28 0 14.58 0 12.41L0 11.58C0 9.41 0 7.71 0.14 6.35C0.29 4.96 0.61 3.82 1.32 2.85C1.74 2.26 2.26 1.74 2.85 1.32C3.82 0.61 4.96 0.29 6.35 0.14C7.71 0 9.41 0 11.58 0ZM6.57 2.14C5.35 2.27 4.6 2.52 4.03 2.94C3.61 3.24 3.24 3.61 2.94 4.03C2.52 4.6 2.27 5.35 2.14 6.57C2.01 7.8 2 9.4 2 11.64L2 12.35C2 14.59 2.01 16.19 2.14 17.42C2.27 18.64 2.52 19.39 2.94 19.96C3.24 20.38 3.61 20.75 4.03 21.05C4.6 21.47 5.35 21.72 6.57 21.85C7.8 21.98 9.4 21.99 11.64 21.99L12.35 21.99C14.59 21.99 16.19 21.98 17.42 21.85C18.64 21.72 19.39 21.47 19.96 21.05C20.38 20.75 20.75 20.38 21.05 19.96C21.47 19.39 21.72 18.64 21.85 17.42C21.98 16.19 21.99 14.59 21.99 12.35L21.99 11.64C21.99 9.4 21.98 7.8 21.85 6.57C21.72 5.35 21.47 4.6 21.05 4.03C20.75 3.61 20.38 3.24 19.96 2.94C19.39 2.52 18.64 2.27 17.42 2.14C16.19 2.01 14.59 2 12.35 2L11.64 2C9.4 2 7.8 2.01 6.57 2.14ZM18.45 4.19C17.69 4.19 17.08 4.81 17.08 5.57C17.08 6.33 17.69 6.94 18.45 6.94C19.21 6.94 19.83 6.33 19.83 5.57C19.83 4.81 19.21 4.19 18.45 4.19ZM5.91 12C5.91 8.63 8.63 5.91 12 5.91C15.36 5.91 18.08 8.63 18.08 12C18.08 15.36 15.36 18.08 12 18.08C8.63 18.08 5.91 15.36 5.91 12ZM12 7.92C9.74 7.92 7.92 9.74 7.92 12C7.92 14.25 9.74 16.07 12 16.07C14.25 16.07 16.07 14.25 16.07 12C16.07 9.74 14.25 7.92 12 7.92Z" fill="#FFFFFF" fill-opacity="1.000000" fill-rule="evenodd"/>
</svg>
