<svg width="24.000000" height="24.000000" viewBox="0 0 24 24" fill="none" xmlns="http://www.w3.org/2000/svg" xmlns:xlink="http://www.w3.org/1999/xlink">
	<desc>
			Created with Pixso.
	</desc>
	<defs/>
	<path id="Union" d="M6.35 0.14C7.71 0 9.41 0 11.58 0L12.41 0C14.58 0 16.28 0 17.64 0.14C19.03 0.29 20.17 0.61 21.14 1.32C21.73 1.74 22.25 2.26 22.67 2.85C23.38 3.82 23.7 4.96 23.85 6.35C24 7.71 24 9.41 24 11.58L24 12.41C24 14.58 24 16.28 23.85 17.64C23.7 19.03 23.38 20.17 22.67 21.14C22.25 21.73 21.73 22.25 21.14 22.67C20.17 23.38 19.03 23.7 17.64 23.85C16.28 24 14.58 24 12.41 24L11.58 24C9.41 24 7.71 24 6.35 23.85C4.96 23.7 3.82 23.38 2.85 22.67C2.26 22.25 1.74 21.73 1.32 21.14C0.61 20.17 0.29 19.03 0.14 17.64C0 16.28 0 14.58 0 12.41L0 11.58C0 9.41 0 7.71 0.14 6.35C0.29 4.96 0.61 3.82 1.32 2.85C1.74 2.26 2.26 1.74 2.85 1.32C3.82 0.61 4.96 0.29 6.35 0.14ZM6.57 2.14C5.35 2.27 4.6 2.52 4.03 2.94C3.61 3.24 3.24 3.61 2.94 4.03C2.52 4.6 2.27 5.35 2.14 6.57C2.01 7.8 2 9.4 2 11.64L2 12.35C2 14.59 2.01 16.19 2.14 17.42C2.27 18.64 2.52 19.39 2.94 19.96C3.24 20.38 3.61 20.75 4.03 21.05C4.6 21.47 5.35 21.72 6.57 21.85C7.8 21.98 9.4 21.99 11.64 21.99L12.35 21.99C14.59 21.99 16.19 21.98 17.42 21.85C18.64 21.72 19.39 21.47 19.96 21.05C20.38 20.75 20.75 20.38 21.05 19.96C21.47 19.39 21.72 18.64 21.85 17.42C21.98 16.19 21.99 14.59 21.99 12.35L21.99 11.64C21.99 9.4 21.98 7.8 21.85 6.57C21.72 5.35 21.47 4.6 21.05 4.03C20.75 3.61 20.38 3.24 19.96 2.94C19.39 2.52 18.64 2.27 17.42 2.14C16.19 2.01 14.59 2 12.35 2L11.64 2C9.4 2 7.8 2.01 6.57 2.14ZM5.38 11.92C6.38 11.44 7.48 11.02 8.55 10.61C8.81 10.51 9.06 10.41 9.32 10.31C11.55 9.48 13.8 8.67 16.06 7.91C16.5 7.78 17.3 7.65 17.37 8.23C17.34 8.8 17.25 9.38 17.15 9.95C17.11 10.18 17.07 10.42 17.04 10.66C16.78 12.16 16.49 13.66 16.19 15.17C16.14 15.44 16.09 15.71 16.04 15.98C15.92 16.57 15.08 16.88 14.54 16.5C14.22 16.31 13.9 16.12 13.58 15.93C12.61 15.36 11.63 14.78 10.66 14.18C10.25 13.81 10.63 13.27 11.01 13.01C11.44 12.63 11.88 12.29 12.31 11.94C12.96 11.42 13.61 10.91 14.21 10.33C14.47 9.79 13.78 10.18 13.47 10.35C13.45 10.37 13.43 10.38 13.41 10.39C13.05 10.6 12.7 10.83 12.34 11.05C11.25 11.72 10.15 12.4 9 12.98C8.29 13.33 7.48 13.1 6.75 12.9C6.67 12.87 6.59 12.85 6.51 12.83C6.41 12.79 6.31 12.76 6.21 12.72C5.55 12.5 4.86 12.26 5.38 11.92Z" fill="#FFFFFF" fill-opacity="1.000000" fill-rule="evenodd"/>
</svg>
